<svg xmlns="http://www.w3.org/2000/svg" viewBox="0 0 1280 720" width="1280" height="720"><rect x="0" y="0" width="1280" height="720" fill="#FFFFFF"/><rect x="40" y="40" width="10" height="40" fill="#0078D7"/><line x1="62" y1="60" x2="420" y2="60" stroke="#A0C4E3" stroke-width="1"/><rect x="60" y="140" width="1160" height="500" fill="none" rx="10" stroke="#A0C4E3" stroke-width="2" stroke-dasharray="8,8"/><text x="62" y="92" font-size="36" fill="#333333" font-family="'Microsoft YaHei', 'PingFang SC', sans-serif" font-weight="bold">总体架构设计</text><text x="62" y="120" font-size="16" fill="#666666" font-family="'Microsoft YaHei', 'PingFang SC', sans-serif">五层 28 个能力模块：一次接入、集中治理、按需编排</text><rect x="80" y="180.0" width="1120" height="80.4" fill="#FFFFFF" rx="10" stroke="#A0C4E3" stroke-width="2"/><rect x="80" y="180.0" width="120" height="80.4" fill="#0078D7" rx="10"/><text x="140" y="227.2" font-size="24" fill="#FFFFFF" font-family="'Microsoft YaHei', 'PingFang SC', sans-serif" text-anchor="middle" font-weight="bold">应用层</text><rect x="220.0" y="198.2" width="105.5" height="44" fill="#F5F5F7" rx="6"/><text x="272.75" y="225.2" font-size="12" fill="#333333" font-family="'Microsoft YaHei', 'PingFang SC', sans-serif" text-anchor="middle">态势总览</text><rect x="341.5" y="198.2" width="105.5" height="44" fill="#F5F5F7" rx="6"/><text x="394.25" y="225.2" font-size="12" fill="#333333" font-family="'Microsoft YaHei', 'PingFang SC', sans-serif" text-anchor="middle">事件调度</text><rect x="463.0" y="198.2" width="105.5" height="44" fill="#F5F5F7" rx="6"/><text x="515.75" y="225.2" font-size="12" fill="#333333" font-family="'Microsoft YaHei', 'PingFang SC', sans-serif" text-anchor="middle">巡更设施</text><rect x="584.5" y="198.2" width="105.5" height="44" fill="#F5F5F7" rx="6"/><text x="637.25" y="225.2" font-size="12" fill="#333333" font-family="'Microsoft YaHei', 'PingFang SC', sans-serif" text-anchor="middle">能耗双碳</text><rect x="706.0" y="198.2" width="105.5" height="44" fill="#F5F5F7" rx="6"/><text x="758.75" y="225.2" font-size="12" fill="#333333" font-family="'Microsoft YaHei', 'PingFang SC', sans-serif" text-anchor="middle">应急指挥</text><rect x="827.5" y="198.2" width="105.5" height="44" fill="#F5F5F7" rx="6"/><text x="880.25" y="225.2" font-size="12" fill="#333333" font-family="'Microsoft YaHei', 'PingFang SC', sans-serif" text-anchor="middle">考核分析</text><rect x="949.0" y="198.2" width="105.5" height="44" fill="#F5F5F7" rx="6"/><text x="1001.75" y="225.2" font-size="12" fill="#333333" font-family="'Microsoft YaHei', 'PingFang SC', sans-serif" text-anchor="middle">企业服务</text><rect x="1070.5" y="198.2" width="105.5" height="44" fill="#F5F5F7" rx="6"/><text x="1123.25" y="225.2" font-size="12" fill="#333333" font-family="'Microsoft YaHei', 'PingFang SC', sans-serif" text-anchor="middle">惠民服务</text><text x="1176" y="194.0" font-size="12" fill="#666666" font-family="'Microsoft YaHei', 'PingFang SC', sans-serif" text-anchor="end">8 模块</text><rect x="80" y="272.4" width="1120" height="80.4" fill="#FFFFFF" rx="10" stroke="#A0C4E3" stroke-width="2"/><rect x="80" y="272.4" width="120" height="80.4" fill="#002E5D" rx="10"/><text x="140" y="319.59999999999997" font-size="24" fill="#FFFFFF" font-family="'Microsoft YaHei', 'PingFang SC', sans-serif" text-anchor="middle" font-weight="bold">平台层</text><rect x="220.0" y="290.59999999999997" width="146.0" height="44" fill="#F5F5F7" rx="6"/><text x="293.0" y="317.59999999999997" font-size="14" fill="#333333" font-family="'Microsoft YaHei', 'PingFang SC', sans-serif" text-anchor="middle">AI 算法仓</text><rect x="382.0" y="290.59999999999997" width="146.0" height="44" fill="#F5F5F7" rx="6"/><text x="455.0" y="317.59999999999997" font-size="14" fill="#333333" font-family="'Microsoft YaHei', 'PingFang SC', sans-serif" text-anchor="middle">GIS 一张图</text><rect x="544.0" y="290.59999999999997" width="146.0" height="44" fill="#F5F5F7" rx="6"/><text x="617.0" y="317.59999999999997" font-size="14" fill="#333333" font-family="'Microsoft YaHei', 'PingFang SC', sans-serif" text-anchor="middle">物联接入</text><rect x="706.0" y="290.59999999999997" width="146.0" height="44" fill="#F5F5F7" rx="6"/><text x="779.0" y="317.59999999999997" font-size="14" fill="#333333" font-family="'Microsoft YaHei', 'PingFang SC', sans-serif" text-anchor="middle">流程引擎</text><rect x="868.0" y="290.59999999999997" width="146.0" height="44" fill="#F5F5F7" rx="6"/><text x="941.0" y="317.59999999999997" font-size="14" fill="#333333" font-family="'Microsoft YaHei', 'PingFang SC', sans-serif" text-anchor="middle">数字孪生</text><rect x="1030.0" y="290.59999999999997" width="146.0" height="44" fill="#F5F5F7" rx="6"/><text x="1103.0" y="317.59999999999997" font-size="14" fill="#333333" font-family="'Microsoft YaHei', 'PingFang SC', sans-serif" text-anchor="middle">开放平台</text><text x="1176" y="286.4" font-size="12" fill="#666666" font-family="'Microsoft YaHei', 'PingFang SC', sans-serif" text-anchor="end">6 模块</text><rect x="80" y="364.8" width="1120" height="80.4" fill="#FFFFFF" rx="10" stroke="#A0C4E3" stroke-width="2"/><rect x="80" y="364.8" width="120" height="80.4" fill="#0078D7" rx="10"/><text x="140" y="412.0" font-size="24" fill="#FFFFFF" font-family="'Microsoft YaHei', 'PingFang SC', sans-serif" text-anchor="middle" font-weight="bold">数据层</text><rect x="220.0" y="383.0" width="178.4" height="44" fill="#F5F5F7" rx="6"/><text x="309.2" y="410.0" font-size="14" fill="#333333" font-family="'Microsoft YaHei', 'PingFang SC', sans-serif" text-anchor="middle">数据汇聚</text><rect x="414.4" y="383.0" width="178.4" height="44" fill="#F5F5F7" rx="6"/><text x="503.59999999999997" y="410.0" font-size="14" fill="#333333" font-family="'Microsoft YaHei', 'PingFang SC', sans-serif" text-anchor="middle">数据治理</text><rect x="608.8" y="383.0" width="178.4" height="44" fill="#F5F5F7" rx="6"/><text x="698.0" y="410.0" font-size="14" fill="#333333" font-family="'Microsoft YaHei', 'PingFang SC', sans-serif" text-anchor="middle">数据共享</text><rect x="803.2" y="383.0" width="178.4" height="44" fill="#F5F5F7" rx="6"/><text x="892.4000000000001" y="410.0" font-size="14" fill="#333333" font-family="'Microsoft YaHei', 'PingFang SC', sans-serif" text-anchor="middle">数据安全</text><rect x="997.6" y="383.0" width="178.4" height="44" fill="#F5F5F7" rx="6"/><text x="1086.8" y="410.0" font-size="14" fill="#333333" font-family="'Microsoft YaHei', 'PingFang SC', sans-serif" text-anchor="middle">数据资产</text><text x="1176" y="378.8" font-size="12" fill="#666666" font-family="'Microsoft YaHei', 'PingFang SC', sans-serif" text-anchor="end">5 模块</text><rect x="80" y="457.2" width="1120" height="80.4" fill="#FFFFFF" rx="10" stroke="#A0C4E3" stroke-width="2"/><rect x="80" y="457.2" width="120" height="80.4" fill="#002E5D" rx="10"/><text x="140" y="504.4" font-size="24" fill="#FFFFFF" font-family="'Microsoft YaHei', 'PingFang SC', sans-serif" text-anchor="middle" font-weight="bold">网络层</text><rect x="220.0" y="475.4" width="308.0" height="44" fill="#F5F5F7" rx="6"/><text x="374.0" y="502.4" font-size="14" fill="#333333" font-family="'Microsoft YaHei', 'PingFang SC', sans-serif" text-anchor="middle">政务外网</text><rect x="544.0" y="475.4" width="308.0" height="44" fill="#F5F5F7" rx="6"/><text x="698.0" y="502.4" font-size="14" fill="#333333" font-family="'Microsoft YaHei', 'PingFang SC', sans-serif" text-anchor="middle">5G 切片</text><rect x="868.0" y="475.4" width="308.0" height="44" fill="#F5F5F7" rx="6"/><text x="1022.0" y="502.4" font-size="14" fill="#333333" font-family="'Microsoft YaHei', 'PingFang SC', sans-serif" text-anchor="middle">物联专网</text><text x="1176" y="471.2" font-size="12" fill="#666666" font-family="'Microsoft YaHei', 'PingFang SC', sans-serif" text-anchor="end">3 模块</text><rect x="80" y="549.6" width="1120" height="80.4" fill="#FFFFFF" rx="10" stroke="#A0C4E3" stroke-width="2"/><rect x="80" y="549.6" width="120" height="80.4" fill="#0078D7" rx="10"/><text x="140" y="596.8000000000001" font-size="24" fill="#FFFFFF" font-family="'Microsoft YaHei', 'PingFang SC', sans-serif" text-anchor="middle" font-weight="bold">感知层</text><rect x="220.0" y="567.8000000000001" width="146.0" height="44" fill="#F5F5F7" rx="6"/><text x="293.0" y="594.8000000000001" font-size="14" fill="#333333" font-family="'Microsoft YaHei', 'PingFang SC', sans-serif" text-anchor="middle">视频监控</text><rect x="382.0" y="567.8000000000001" width="146.0" height="44" fill="#F5F5F7" rx="6"/><text x="455.0" y="594.8000000000001" font-size="14" fill="#333333" font-family="'Microsoft YaHei', 'PingFang SC', sans-serif" text-anchor="middle">IoT 传感</text><rect x="544.0" y="567.8000000000001" width="146.0" height="44" fill="#F5F5F7" rx="6"/><text x="617.0" y="594.8000000000001" font-size="14" fill="#333333" font-family="'Microsoft YaHei', 'PingFang SC', sans-serif" text-anchor="middle">门禁道闸</text><rect x="706.0" y="567.8000000000001" width="146.0" height="44" fill="#F5F5F7" rx="6"/><text x="779.0" y="594.8000000000001" font-size="14" fill="#333333" font-family="'Microsoft YaHei', 'PingFang SC', sans-serif" text-anchor="middle">能耗计量</text><rect x="868.0" y="567.8000000000001" width="146.0" height="44" fill="#F5F5F7" rx="6"/><text x="941.0" y="594.8000000000001" font-size="14" fill="#333333" font-family="'Microsoft YaHei', 'PingFang SC', sans-serif" text-anchor="middle">设施设备</text><rect x="1030.0" y="567.8000000000001" width="146.0" height="44" fill="#F5F5F7" rx="6"/><text x="1103.0" y="594.8000000000001" font-size="14" fill="#333333" font-family="'Microsoft YaHei', 'PingFang SC', sans-serif" text-anchor="middle">应急广播</text><text x="1176" y="563.6" font-size="12" fill="#666666" font-family="'Microsoft YaHei', 'PingFang SC', sans-serif" text-anchor="end">6 模块</text><text x="80" y="696" font-size="14" fill="#666666" font-family="'Microsoft YaHei', 'PingFang SC', sans-serif">04</text><text x="1200" y="696" font-size="14" fill="#666666" font-family="'Microsoft YaHei', 'PingFang SC', sans-serif" text-anchor="end">栖云数字 · 机密 · 仅供评审</text></svg>