<svg xmlns="http://www.w3.org/2000/svg" viewBox="0 0 1280 720" width="1280" height="720"><defs><linearGradient id="g1" x1="0" y1="0" x2="0" y2="1"><stop offset="0" stop-color="#0078D7"/><stop offset="1" stop-color="#002E5D"/></linearGradient></defs><rect x="0" y="0" width="1280" height="720" fill="url(#g1)"/><text x="640" y="190" font-size="56" fill="#FFFFFF" font-family="'Microsoft YaHei', 'PingFang SC', sans-serif" text-anchor="middle" font-weight="bold">恳请审议 · 期待共建</text><text x="640" y="240" font-size="24" fill="#4CA1E7" font-family="'Microsoft YaHei', 'PingFang SC', sans-serif" text-anchor="middle">澄区智慧运管中心建设项目 · 技术方案与投资建议书</text><rect x="250" y="280" width="780" height="72" fill="#FFFFFF" rx="10" fill-opacity="0.1"/><rect x="266" y="304" width="12" height="12" fill="#4CA1E7"/><text x="290" y="324" font-size="24" fill="#FFFFFF" font-family="'Microsoft YaHei', 'PingFang SC', sans-serif" font-weight="bold">一次立项</text><text x="470" y="324" font-size="16" fill="#A0C4E3" font-family="'Microsoft YaHei', 'PingFang SC', sans-serif">按三期滚动实施，每期验收后再进入下一期</text><rect x="250" y="372" width="780" height="72" fill="#FFFFFF" rx="10" fill-opacity="0.1"/><rect x="266" y="396" width="12" height="12" fill="#4CA1E7"/><text x="290" y="416" font-size="24" fill="#FFFFFF" font-family="'Microsoft YaHei', 'PingFang SC', sans-serif" font-weight="bold">两地试点</text><text x="470" y="416" font-size="16" fill="#A0C4E3" font-family="'Microsoft YaHei', 'PingFang SC', sans-serif">先落地澄区北苑园区与云谷路两个示范片区</text><rect x="250" y="464" width="780" height="72" fill="#FFFFFF" rx="10" fill-opacity="0.1"/><rect x="266" y="488" width="12" height="12" fill="#4CA1E7"/><text x="290" y="508" font-size="24" fill="#FFFFFF" font-family="'Microsoft YaHei', 'PingFang SC', sans-serif" font-weight="bold">三方共管</text><text x="470" y="508" font-size="16" fill="#A0C4E3" font-family="'Microsoft YaHei', 'PingFang SC', sans-serif">管委会、运营公司与栖云数字共建联合工作组</text><text x="640" y="660" font-size="14" fill="#4CA1E7" font-family="'Microsoft YaHei', 'PingFang SC', sans-serif" text-anchor="middle">栖云数字科技有限公司 · 0571-8688-0000 · proposal@qiyun.example · 澄区云栖路 1 号 · 数字港 B 座</text><path d="M0 700 Q320 640 640 690 T1280 660 L1280 720 L0 720 Z" fill="#0078D7" fill-opacity="0.35"/></svg>