<svg xmlns="http://www.w3.org/2000/svg" viewBox="0 0 1280 720" width="1280" height="720"><defs><linearGradient id="g1" x1="0" y1="0" x2="1" y2="0"><stop offset="0" stop-color="#8B0000"/><stop offset="1" stop-color="#003366"/></linearGradient></defs><rect x="0" y="0" width="1280" height="720" fill="#FFFFFF"/><rect x="0" y="0" width="1280" height="6" fill="url(#g1)"/><rect x="0" y="716" width="1280" height="4" fill="#8B0000"/><rect x="60" y="30" width="50" height="50" fill="#8B0000"/><text x="85" y="64" font-size="24" fill="#FFFFFF" font-family="'Microsoft YaHei', '微软雅黑', 'SimHei', 'Source Han Sans SC', Arial, sans-serif" text-anchor="middle" font-weight="bold">02</text><text x="130" y="66" font-size="28" fill="#1A1A1A" font-family="'Microsoft YaHei', '微软雅黑', 'SimHei', 'Source Han Sans SC', Arial, sans-serif" font-weight="bold">总体架构设计</text><text x="130" y="96" font-size="18" fill="#718096" font-family="'Microsoft YaHei', '微软雅黑', 'SimHei', 'Source Han Sans SC', Arial, sans-serif">五层 28 个能力模块：一次接入、集中治理、按需编排</text><rect x="60" y="110.0" width="1160" height="100.4" fill="#F5F7FA" rx="8"/><rect x="60" y="110.0" width="120" height="100.4" fill="#8B0000" rx="8"/><text x="120" y="167.2" font-size="24" fill="#FFFFFF" font-family="'Microsoft YaHei', '微软雅黑', 'SimHei', 'Source Han Sans SC', Arial, sans-serif" text-anchor="middle" font-weight="bold">应用层</text><rect x="200.0" y="138.2" width="110.5" height="44" fill="#F5F7FA" rx="6"/><text x="255.25" y="165.2" font-size="12" fill="#1A1A1A" font-family="'Microsoft YaHei', '微软雅黑', 'SimHei', 'Source Han Sans SC', Arial, sans-serif" text-anchor="middle">态势总览</text><rect x="326.5" y="138.2" width="110.5" height="44" fill="#F5F7FA" rx="6"/><text x="381.75" y="165.2" font-size="12" fill="#1A1A1A" font-family="'Microsoft YaHei', '微软雅黑', 'SimHei', 'Source Han Sans SC', Arial, sans-serif" text-anchor="middle">事件调度</text><rect x="453.0" y="138.2" width="110.5" height="44" fill="#F5F7FA" rx="6"/><text x="508.25" y="165.2" font-size="12" fill="#1A1A1A" font-family="'Microsoft YaHei', '微软雅黑', 'SimHei', 'Source Han Sans SC', Arial, sans-serif" text-anchor="middle">巡更设施</text><rect x="579.5" y="138.2" width="110.5" height="44" fill="#F5F7FA" rx="6"/><text x="634.75" y="165.2" font-size="12" fill="#1A1A1A" font-family="'Microsoft YaHei', '微软雅黑', 'SimHei', 'Source Han Sans SC', Arial, sans-serif" text-anchor="middle">能耗双碳</text><rect x="706.0" y="138.2" width="110.5" height="44" fill="#F5F7FA" rx="6"/><text x="761.25" y="165.2" font-size="12" fill="#1A1A1A" font-family="'Microsoft YaHei', '微软雅黑', 'SimHei', 'Source Han Sans SC', Arial, sans-serif" text-anchor="middle">应急指挥</text><rect x="832.5" y="138.2" width="110.5" height="44" fill="#F5F7FA" rx="6"/><text x="887.75" y="165.2" font-size="12" fill="#1A1A1A" font-family="'Microsoft YaHei', '微软雅黑', 'SimHei', 'Source Han Sans SC', Arial, sans-serif" text-anchor="middle">考核分析</text><rect x="959.0" y="138.2" width="110.5" height="44" fill="#F5F7FA" rx="6"/><text x="1014.25" y="165.2" font-size="12" fill="#1A1A1A" font-family="'Microsoft YaHei', '微软雅黑', 'SimHei', 'Source Han Sans SC', Arial, sans-serif" text-anchor="middle">企业服务</text><rect x="1085.5" y="138.2" width="110.5" height="44" fill="#F5F7FA" rx="6"/><text x="1140.75" y="165.2" font-size="12" fill="#1A1A1A" font-family="'Microsoft YaHei', '微软雅黑', 'SimHei', 'Source Han Sans SC', Arial, sans-serif" text-anchor="middle">惠民服务</text><text x="1196" y="124.0" font-size="12" fill="#718096" font-family="'Microsoft YaHei', '微软雅黑', 'SimHei', 'Source Han Sans SC', Arial, sans-serif" text-anchor="end">8 模块</text><rect x="60" y="222.4" width="1160" height="100.4" fill="#F5F7FA" rx="8"/><rect x="60" y="222.4" width="120" height="100.4" fill="#003366" rx="8"/><text x="120" y="279.6" font-size="24" fill="#FFFFFF" font-family="'Microsoft YaHei', '微软雅黑', 'SimHei', 'Source Han Sans SC', Arial, sans-serif" text-anchor="middle" font-weight="bold">平台层</text><rect x="200.0" y="250.60000000000002" width="152.66666666666666" height="44" fill="#F5F7FA" rx="6"/><text x="276.3333333333333" y="277.6" font-size="14" fill="#1A1A1A" font-family="'Microsoft YaHei', '微软雅黑', 'SimHei', 'Source Han Sans SC', Arial, sans-serif" text-anchor="middle">AI 算法仓</text><rect x="368.66666666666663" y="250.60000000000002" width="152.66666666666666" height="44" fill="#F5F7FA" rx="6"/><text x="444.99999999999994" y="277.6" font-size="14" fill="#1A1A1A" font-family="'Microsoft YaHei', '微软雅黑', 'SimHei', 'Source Han Sans SC', Arial, sans-serif" text-anchor="middle">GIS 一张图</text><rect x="537.3333333333333" y="250.60000000000002" width="152.66666666666666" height="44" fill="#F5F7FA" rx="6"/><text x="613.6666666666666" y="277.6" font-size="14" fill="#1A1A1A" font-family="'Microsoft YaHei', '微软雅黑', 'SimHei', 'Source Han Sans SC', Arial, sans-serif" text-anchor="middle">物联接入</text><rect x="706.0" y="250.60000000000002" width="152.66666666666666" height="44" fill="#F5F7FA" rx="6"/><text x="782.3333333333334" y="277.6" font-size="14" fill="#1A1A1A" font-family="'Microsoft YaHei', '微软雅黑', 'SimHei', 'Source Han Sans SC', Arial, sans-serif" text-anchor="middle">流程引擎</text><rect x="874.6666666666666" y="250.60000000000002" width="152.66666666666666" height="44" fill="#F5F7FA" rx="6"/><text x="951.0" y="277.6" font-size="14" fill="#1A1A1A" font-family="'Microsoft YaHei', '微软雅黑', 'SimHei', 'Source Han Sans SC', Arial, sans-serif" text-anchor="middle">数字孪生</text><rect x="1043.3333333333333" y="250.60000000000002" width="152.66666666666666" height="44" fill="#F5F7FA" rx="6"/><text x="1119.6666666666665" y="277.6" font-size="14" fill="#1A1A1A" font-family="'Microsoft YaHei', '微软雅黑', 'SimHei', 'Source Han Sans SC', Arial, sans-serif" text-anchor="middle">开放平台</text><text x="1196" y="236.4" font-size="12" fill="#718096" font-family="'Microsoft YaHei', '微软雅黑', 'SimHei', 'Source Han Sans SC', Arial, sans-serif" text-anchor="end">6 模块</text><rect x="60" y="334.8" width="1160" height="100.4" fill="#F5F7FA" rx="8"/><rect x="60" y="334.8" width="120" height="100.4" fill="#8B0000" rx="8"/><text x="120" y="392.0" font-size="24" fill="#FFFFFF" font-family="'Microsoft YaHei', '微软雅黑', 'SimHei', 'Source Han Sans SC', Arial, sans-serif" text-anchor="middle" font-weight="bold">数据层</text><rect x="200.0" y="363.0" width="186.4" height="44" fill="#F5F7FA" rx="6"/><text x="293.2" y="390.0" font-size="14" fill="#1A1A1A" font-family="'Microsoft YaHei', '微软雅黑', 'SimHei', 'Source Han Sans SC', Arial, sans-serif" text-anchor="middle">数据汇聚</text><rect x="402.4" y="363.0" width="186.4" height="44" fill="#F5F7FA" rx="6"/><text x="495.59999999999997" y="390.0" font-size="14" fill="#1A1A1A" font-family="'Microsoft YaHei', '微软雅黑', 'SimHei', 'Source Han Sans SC', Arial, sans-serif" text-anchor="middle">数据治理</text><rect x="604.8" y="363.0" width="186.4" height="44" fill="#F5F7FA" rx="6"/><text x="698.0" y="390.0" font-size="14" fill="#1A1A1A" font-family="'Microsoft YaHei', '微软雅黑', 'SimHei', 'Source Han Sans SC', Arial, sans-serif" text-anchor="middle">数据共享</text><rect x="807.2" y="363.0" width="186.4" height="44" fill="#F5F7FA" rx="6"/><text x="900.4000000000001" y="390.0" font-size="14" fill="#1A1A1A" font-family="'Microsoft YaHei', '微软雅黑', 'SimHei', 'Source Han Sans SC', Arial, sans-serif" text-anchor="middle">数据安全</text><rect x="1009.6" y="363.0" width="186.4" height="44" fill="#F5F7FA" rx="6"/><text x="1102.8" y="390.0" font-size="14" fill="#1A1A1A" font-family="'Microsoft YaHei', '微软雅黑', 'SimHei', 'Source Han Sans SC', Arial, sans-serif" text-anchor="middle">数据资产</text><text x="1196" y="348.8" font-size="12" fill="#718096" font-family="'Microsoft YaHei', '微软雅黑', 'SimHei', 'Source Han Sans SC', Arial, sans-serif" text-anchor="end">5 模块</text><rect x="60" y="447.2" width="1160" height="100.4" fill="#F5F7FA" rx="8"/><rect x="60" y="447.2" width="120" height="100.4" fill="#003366" rx="8"/><text x="120" y="504.4" font-size="24" fill="#FFFFFF" font-family="'Microsoft YaHei', '微软雅黑', 'SimHei', 'Source Han Sans SC', Arial, sans-serif" text-anchor="middle" font-weight="bold">网络层</text><rect x="200.0" y="475.4" width="321.3333333333333" height="44" fill="#F5F7FA" rx="6"/><text x="360.66666666666663" y="502.4" font-size="14" fill="#1A1A1A" font-family="'Microsoft YaHei', '微软雅黑', 'SimHei', 'Source Han Sans SC', Arial, sans-serif" text-anchor="middle">政务外网</text><rect x="537.3333333333333" y="475.4" width="321.3333333333333" height="44" fill="#F5F7FA" rx="6"/><text x="697.9999999999999" y="502.4" font-size="14" fill="#1A1A1A" font-family="'Microsoft YaHei', '微软雅黑', 'SimHei', 'Source Han Sans SC', Arial, sans-serif" text-anchor="middle">5G 切片</text><rect x="874.6666666666666" y="475.4" width="321.3333333333333" height="44" fill="#F5F7FA" rx="6"/><text x="1035.3333333333333" y="502.4" font-size="14" fill="#1A1A1A" font-family="'Microsoft YaHei', '微软雅黑', 'SimHei', 'Source Han Sans SC', Arial, sans-serif" text-anchor="middle">物联专网</text><text x="1196" y="461.2" font-size="12" fill="#718096" font-family="'Microsoft YaHei', '微软雅黑', 'SimHei', 'Source Han Sans SC', Arial, sans-serif" text-anchor="end">3 模块</text><rect x="60" y="559.6" width="1160" height="100.4" fill="#F5F7FA" rx="8"/><rect x="60" y="559.6" width="120" height="100.4" fill="#8B0000" rx="8"/><text x="120" y="616.8000000000001" font-size="24" fill="#FFFFFF" font-family="'Microsoft YaHei', '微软雅黑', 'SimHei', 'Source Han Sans SC', Arial, sans-serif" text-anchor="middle" font-weight="bold">感知层</text><rect x="200.0" y="587.8000000000001" width="152.66666666666666" height="44" fill="#F5F7FA" rx="6"/><text x="276.3333333333333" y="614.8000000000001" font-size="14" fill="#1A1A1A" font-family="'Microsoft YaHei', '微软雅黑', 'SimHei', 'Source Han Sans SC', Arial, sans-serif" text-anchor="middle">视频监控</text><rect x="368.66666666666663" y="587.8000000000001" width="152.66666666666666" height="44" fill="#F5F7FA" rx="6"/><text x="444.99999999999994" y="614.8000000000001" font-size="14" fill="#1A1A1A" font-family="'Microsoft YaHei', '微软雅黑', 'SimHei', 'Source Han Sans SC', Arial, sans-serif" text-anchor="middle">IoT 传感</text><rect x="537.3333333333333" y="587.8000000000001" width="152.66666666666666" height="44" fill="#F5F7FA" rx="6"/><text x="613.6666666666666" y="614.8000000000001" font-size="14" fill="#1A1A1A" font-family="'Microsoft YaHei', '微软雅黑', 'SimHei', 'Source Han Sans SC', Arial, sans-serif" text-anchor="middle">门禁道闸</text><rect x="706.0" y="587.8000000000001" width="152.66666666666666" height="44" fill="#F5F7FA" rx="6"/><text x="782.3333333333334" y="614.8000000000001" font-size="14" fill="#1A1A1A" font-family="'Microsoft YaHei', '微软雅黑', 'SimHei', 'Source Han Sans SC', Arial, sans-serif" text-anchor="middle">能耗计量</text><rect x="874.6666666666666" y="587.8000000000001" width="152.66666666666666" height="44" fill="#F5F7FA" rx="6"/><text x="951.0" y="614.8000000000001" font-size="14" fill="#1A1A1A" font-family="'Microsoft YaHei', '微软雅黑', 'SimHei', 'Source Han Sans SC', Arial, sans-serif" text-anchor="middle">设施设备</text><rect x="1043.3333333333333" y="587.8000000000001" width="152.66666666666666" height="44" fill="#F5F7FA" rx="6"/><text x="1119.6666666666665" y="614.8000000000001" font-size="14" fill="#1A1A1A" font-family="'Microsoft YaHei', '微软雅黑', 'SimHei', 'Source Han Sans SC', Arial, sans-serif" text-anchor="middle">应急广播</text><text x="1196" y="573.6" font-size="12" fill="#718096" font-family="'Microsoft YaHei', '微软雅黑', 'SimHei', 'Source Han Sans SC', Arial, sans-serif" text-anchor="end">6 模块</text><text x="60" y="696" font-size="14" fill="#718096" font-family="'Microsoft YaHei', '微软雅黑', 'SimHei', 'Source Han Sans SC', Arial, sans-serif">04</text><text x="1220" y="696" font-size="14" fill="#718096" font-family="'Microsoft YaHei', '微软雅黑', 'SimHei', 'Source Han Sans SC', Arial, sans-serif" text-anchor="end">栖云数字 · 机密 · 仅供评审</text></svg>